<?xml version="1.0" encoding="UTF-8"?><svg id="Ebene_2" xmlns="http://www.w3.org/2000/svg" viewBox="0 0 192.57 146.5"><defs><style>.cls-1,.cls-2,.cls-3{fill:#fff;}.cls-4{fill:#51648a;}.cls-2{stroke:#51648a;stroke-miterlimit:10;stroke-width:2px;}.cls-3{fill-rule:evenodd;}</style></defs><g id="Ebene_1-2"><path class="cls-2" d="M191.57,54.34c0,5.46-42.66,9.87-95.28,9.87S1,59.8,1,54.34c0-1.26,2.25-2.45,6.36-3.55,5.05,1.35,12.9,2.57,22.83,3.55,17.13,1.71,40.43,2.77,66.09,2.77s48.97-1.05,66.09-2.77c9.92-.98,17.78-2.2,22.83-3.55,4.11,1.09,6.36,2.29,6.36,3.55Z"/><ellipse class="cls-2" cx="96.28" cy="10.87" rx="95.28" ry="9.87"/><path class="cls-2" d="M191.57,14.87V48.68c0,1.26-2.25,2.45-6.36,3.56-5.05,1.35-12.9,2.57-22.83,3.55-17.13,1.71-40.43,2.77-66.09,2.77s-48.97-1.05-66.09-2.77c-9.92-.98-17.78-2.2-22.83-3.55-4.11-1.11-6.36-2.3-6.36-3.56V14.87c0,5.45,42.66,9.87,95.28,9.87s95.28-4.42,95.28-9.87Z"/><path class="cls-2" d="M191.57,97.81c0,5.46-42.66,9.87-95.28,9.87S1,103.27,1,97.81c0-1.26,2.25-2.45,6.36-3.55,5.05,1.35,12.9,2.57,22.83,3.55,17.13,1.71,40.43,2.77,66.09,2.77s48.97-1.05,66.09-2.77c9.92-.98,17.78-2.2,22.83-3.55,4.11,1.09,6.36,2.29,6.36,3.55Z"/><path class="cls-2" d="M191.57,58.34v33.81c0,5.45-42.66,9.87-95.28,9.87S1,97.61,1,92.16V58.34c0,5.46,42.66,9.87,95.28,9.87s95.28-4.41,95.28-9.87Z"/><path class="cls-2" d="M191.57,101.81v33.81c0,5.45-42.66,9.87-95.28,9.87S1,141.08,1,135.62v-33.81c0,5.46,42.66,9.87,95.28,9.87s95.28-4.41,95.28-9.87Z"/><g id="Ebene_4"><circle class="cls-1" cx="96.28" cy="75.19" r="49.32"/></g><circle class="cls-4" cx="96.28" cy="75.19" r="57.54"/><circle class="cls-4" cx="96.28" cy="75.19" r="67.51"/><path class="cls-1" d="M96.28,17.64c31.78,0,57.54,25.76,57.54,57.54s-25.76,57.54-57.54,57.54-57.54-25.76-57.54-57.54,25.76-57.54,57.54-57.54m0-6c-35.04,0-63.54,28.51-63.54,63.54s28.51,63.54,63.54,63.54,63.54-28.51,63.54-63.54S131.31,11.64,96.28,11.64h0Z"/><g id="Ebene_3"><path id="_-Icon-Color" class="cls-3" d="M95.45,46.5v-10.36l-13.54,14.34,13.54,14.34v-11.15c11.15,0,20.72,9.56,20.72,21.51,0,3.98-.8,7.17-2.39,10.36l4.78,5.58c2.39-4.78,3.98-9.56,3.98-15.14,.8-16.73-11.15-29.48-27.09-29.48Zm0,50.2c-11.15,0-20.72-9.56-20.72-21.51,0-3.98,.8-7.17,2.39-10.36l-4.78-4.78c-2.39,4.78-3.98,9.56-3.98,15.14,0,15.93,11.95,28.68,27.09,28.68v10.36l13.54-14.34-13.54-13.54v10.36Z"/></g></g></svg>