<?xml version="1.0" encoding="UTF-8"?><svg id="Ebene_2" xmlns="http://www.w3.org/2000/svg" viewBox="0 0 190.57 140.5"><defs><style>.cls-1{fill:#fff;}.cls-2{fill:#b3b3b3;}.cls-3{fill:#333;}.cls-4{fill:gray;}.cls-5{fill:#e6e6e6;fill-rule:evenodd;}</style></defs><g id="Ebene_1-2"><path class="cls-4" d="M190.57,53.34c0,5.46-42.66,9.87-95.28,9.87S0,58.8,0,53.34c0-1.26,2.25-2.45,6.36-3.55,5.05,1.35,12.9,2.57,22.83,3.55,17.13,1.71,40.43,2.77,66.09,2.77s48.97-1.05,66.09-2.77c9.92-.98,17.78-2.2,22.83-3.55,4.11,1.09,6.36,2.29,6.36,3.55Z"/><ellipse class="cls-4" cx="95.28" cy="9.87" rx="95.28" ry="9.87"/><path class="cls-2" d="M190.57,9.87V43.68c0,1.26-2.25,2.45-6.36,3.56-5.05,1.35-12.9,2.57-22.83,3.55-17.13,1.71-40.43,2.77-66.09,2.77s-48.97-1.05-66.09-2.77c-9.92-.98-17.78-2.2-22.83-3.55-4.11-1.11-6.36-2.3-6.36-3.56V9.87c0,5.45,42.66,9.87,95.28,9.87s95.28-4.42,95.28-9.87Z"/><path class="cls-2" d="M190.57,53.34v33.81c0,5.45-42.66,9.87-95.28,9.87S0,92.61,0,87.16V53.34c0,5.46,42.66,9.87,95.28,9.87s95.28-4.41,95.28-9.87Z"/><path class="cls-4" d="M190.57,96.81c0,5.46-42.66,9.87-95.28,9.87S0,102.27,0,96.81c0-1.26,2.25-2.45,6.36-3.55,5.05,1.35,12.9,2.57,22.83,3.55,17.13,1.71,40.43,2.77,66.09,2.77s48.97-1.05,66.09-2.77c9.92-.98,17.78-2.2,22.83-3.55,4.11,1.09,6.36,2.29,6.36,3.55Z"/><path class="cls-2" d="M190.57,96.81v33.81c0,5.45-42.66,9.87-95.28,9.87S0,136.08,0,130.62v-33.81c0,5.46,42.66,9.87,95.28,9.87s95.28-4.41,95.28-9.87Z"/><g id="Ebene_4"><circle class="cls-1" cx="95.28" cy="74.19" r="49.32"/></g><g id="Ebene_4-2"><circle class="cls-3" cx="95.28" cy="74.19" r="57.54"/></g><g id="Ebene_3"><path id="_-Icon-Color" class="cls-5" d="M94.45,45.5v-10.36l-13.54,14.34,13.54,14.34v-11.15c11.15,0,20.72,9.56,20.72,21.51,0,3.98-.8,7.17-2.39,10.36l4.78,5.58c2.39-4.78,3.98-9.56,3.98-15.14,.8-16.73-11.15-29.48-27.09-29.48Zm0,50.2c-11.15,0-20.72-9.56-20.72-21.51,0-3.98,.8-7.17,2.39-10.36l-4.78-4.78c-2.39,4.78-3.98,9.56-3.98,15.14,0,15.93,11.95,28.68,27.09,28.68v10.36l13.54-14.34-13.54-13.54v10.36Z"/></g></g></svg>