<?xml version="1.0" encoding="UTF-8"?><svg id="Ebene_2" xmlns="http://www.w3.org/2000/svg" viewBox="0 0 115.09 115.09"><defs><style>.cls-1{fill:#333;}</style></defs><g id="Ebene_1-2"><path class="cls-1" d="M57.54,0C25.76,0,0,25.76,0,57.54s25.76,57.54,57.54,57.54,57.54-25.76,57.54-57.54S89.32,0,57.54,0Zm-.82,96.58v-10.36c-15.14,0-27.09-12.75-27.09-28.68,0-5.58,1.59-10.36,3.98-15.14l4.78,4.78c-1.59,3.19-2.39,6.37-2.39,10.36,0,11.95,9.56,21.51,20.72,21.51v-10.36l13.54,13.54-13.54,14.34Zm27.09-38.24c0,5.58-1.59,10.36-3.98,15.14l-4.78-5.58c1.59-3.19,2.39-6.37,2.39-10.36,0-11.95-9.56-21.51-20.72-21.51v11.15l-13.54-14.34,13.54-14.34v10.36c15.93,0,27.89,12.75,27.09,29.48Z"/></g></svg>